<?xml version="1.0" encoding="UTF-8" standalone="no"?>
<!DOCTYPE svg PUBLIC "-//W3C//DTD SVG 1.1//EN"
 "http://www.w3.org/Graphics/SVG/1.1/DTD/svg11.dtd">
<!-- Generated by graphviz version 6.0.2 (20221011.1828)
 -->
<!-- Title: call_graph Pages: 1 -->
<svg width="629pt" height="131pt"
 viewBox="0.00 0.00 629.14 131.00" xmlns="http://www.w3.org/2000/svg" xmlns:xlink="http://www.w3.org/1999/xlink">
<g id="graph0" class="graph" transform="scale(1 1) rotate(0) translate(4 127)">
<title>call_graph</title>
<polygon fill="white" stroke="none" points="-4,4 -4,-127 625.14,-127 625.14,4 -4,4"/>
<!-- EmailNewsLetter -->
<g id="node1" class="node">
<title>EmailNewsLetter</title>
<ellipse fill="none" stroke="black" cx="72.14" cy="-105" rx="72.29" ry="18"/>
<text text-anchor="middle" x="72.14" y="-101.3" font-family="Times New Roman,serif" font-size="14.00">EmailNewsLetter</text>
</g>
<!-- Netflix -->
<g id="node2" class="node">
<title>Netflix</title>
<ellipse fill="none" stroke="black" cx="286.14" cy="-18" rx="34.39" ry="18"/>
<text text-anchor="middle" x="286.14" y="-14.3" font-family="Times New Roman,serif" font-size="14.00">Netflix</text>
</g>
<!-- EmailNewsLetter&#45;&gt;Netflix -->
<g id="edge1" class="edge">
<title>EmailNewsLetter&#45;&gt;Netflix</title>
<path fill="none" stroke="black" d="M45.2,-88.11C31.78,-78.22 20.3,-65.28 30.14,-54 57.02,-23.2 175.37,-18.52 241.34,-18.37"/>
<polygon fill="black" stroke="black" points="241.45,-21.87 251.45,-18.38 241.46,-14.87 241.45,-21.87"/>
<text text-anchor="middle" x="61.64" y="-57.8" font-family="Times New Roman,serif" font-size="14.00">1. addAlert</text>
</g>
<!-- EmailNewsLetter&#45;&gt;Netflix -->
<g id="edge5" class="edge">
<title>EmailNewsLetter&#45;&gt;Netflix</title>
<path fill="none" stroke="black" d="M88.58,-87.24C100.31,-76.22 116.98,-62.34 134.14,-54 168.5,-37.3 211.14,-28.38 242.51,-23.73"/>
<polygon fill="black" stroke="black" points="243.26,-27.16 252.68,-22.32 242.3,-20.23 243.26,-27.16"/>
<text text-anchor="middle" x="186.64" y="-57.8" font-family="Times New Roman,serif" font-size="14.00">5. getAlertUpdates</text>
</g>
<!-- Netflix&#45;&gt;Netflix -->
<g id="edge4" class="edge">
<title>Netflix&#45;&gt;Netflix</title>
<path fill="none" stroke="black" d="M317.11,-26.13C328.87,-26.45 338.59,-23.73 338.59,-18 338.59,-14.06 333.99,-11.54 327.3,-10.46"/>
<polygon fill="black" stroke="black" points="327.3,-6.95 317.11,-9.87 326.89,-13.94 327.3,-6.95"/>
<text text-anchor="middle" x="388.59" y="-14.3" font-family="Times New Roman,serif" font-size="14.00">4. notifyEveryone</text>
</g>
<!-- SmsAlert -->
<g id="node3" class="node">
<title>SmsAlert</title>
<ellipse fill="none" stroke="black" cx="289.14" cy="-105" rx="44.39" ry="18"/>
<text text-anchor="middle" x="289.14" y="-101.3" font-family="Times New Roman,serif" font-size="14.00">SmsAlert</text>
</g>
<!-- SmsAlert&#45;&gt;Netflix -->
<g id="edge2" class="edge">
<title>SmsAlert&#45;&gt;Netflix</title>
<path fill="none" stroke="black" d="M263.27,-90.08C255.69,-84.59 248.32,-77.54 244.14,-69 238.59,-57.64 245.85,-46.68 255.81,-37.94"/>
<polygon fill="black" stroke="black" points="258.06,-40.62 263.79,-31.71 253.76,-35.11 258.06,-40.62"/>
<text text-anchor="middle" x="275.64" y="-57.8" font-family="Times New Roman,serif" font-size="14.00">2. addAlert</text>
</g>
<!-- SmsAlert&#45;&gt;Netflix -->
<g id="edge6" class="edge">
<title>SmsAlert&#45;&gt;Netflix</title>
<path fill="none" stroke="black" d="M300.51,-87.54C305.8,-77.88 310.3,-65.38 307.14,-54 306.19,-50.55 304.79,-47.1 303.16,-43.78"/>
<polygon fill="black" stroke="black" points="306.11,-41.88 298.15,-34.89 300.02,-45.32 306.11,-41.88"/>
<text text-anchor="middle" x="360.64" y="-57.8" font-family="Times New Roman,serif" font-size="14.00">6. getAlertUpdates</text>
</g>
<!-- PushAlert -->
<g id="node4" class="node">
<title>PushAlert</title>
<ellipse fill="none" stroke="black" cx="500.14" cy="-105" rx="46.29" ry="18"/>
<text text-anchor="middle" x="500.14" y="-101.3" font-family="Times New Roman,serif" font-size="14.00">PushAlert</text>
</g>
<!-- PushAlert&#45;&gt;Netflix -->
<g id="edge3" class="edge">
<title>PushAlert&#45;&gt;Netflix</title>
<path fill="none" stroke="black" d="M478.85,-88.87C462.59,-77.9 439.29,-63.4 417.14,-54 388.45,-41.81 354.39,-32.87 328.19,-27.07"/>
<polygon fill="black" stroke="black" points="328.72,-23.61 318.21,-24.93 327.25,-30.45 328.72,-23.61"/>
<text text-anchor="middle" x="476.64" y="-57.8" font-family="Times New Roman,serif" font-size="14.00">3. addAlert</text>
</g>
<!-- PushAlert&#45;&gt;Netflix -->
<g id="edge7" class="edge">
<title>PushAlert&#45;&gt;Netflix</title>
<path fill="none" stroke="black" d="M510.79,-87.42C516.16,-76.75 520.04,-63.22 512.14,-54 489.29,-27.34 390.13,-20.81 331.01,-19.32"/>
<polygon fill="black" stroke="black" points="330.9,-15.82 320.82,-19.11 330.75,-22.82 330.9,-15.82"/>
<text text-anchor="middle" x="568.64" y="-57.8" font-family="Times New Roman,serif" font-size="14.00">7. getAlertUpdates</text>
</g>
</g>
</svg>
