<?xml version="1.0" encoding="UTF-8" standalone="no"?>
<!DOCTYPE svg PUBLIC "-//W3C//DTD SVG 1.1//EN"
 "http://www.w3.org/Graphics/SVG/1.1/DTD/svg11.dtd">
<!-- Generated by graphviz version 6.0.2 (20221011.1828)
 -->
<!-- Title: call_graph Pages: 1 -->
<svg width="531pt" height="218pt"
 viewBox="0.00 0.00 531.02 218.00" xmlns="http://www.w3.org/2000/svg" xmlns:xlink="http://www.w3.org/1999/xlink">
<g id="graph0" class="graph" transform="scale(1 1) rotate(0) translate(4 214)">
<title>call_graph</title>
<polygon fill="white" stroke="none" points="-4,4 -4,-214 527.02,-214 527.02,4 -4,4"/>
<!-- Newsportal -->
<g id="node1" class="node">
<title>Newsportal</title>
<ellipse fill="none" stroke="black" cx="227.02" cy="-192" rx="51.99" ry="18"/>
<text text-anchor="middle" x="227.02" y="-188.3" font-family="Times New Roman,serif" font-size="14.00">Newsportal</text>
</g>
<!-- Blogger -->
<g id="node2" class="node">
<title>Blogger</title>
<ellipse fill="none" stroke="black" cx="227.02" cy="-105" rx="38.99" ry="18"/>
<text text-anchor="middle" x="227.02" y="-101.3" font-family="Times New Roman,serif" font-size="14.00">Blogger</text>
</g>
<!-- Newsportal&#45;&gt;Blogger -->
<g id="edge1" class="edge">
<title>Newsportal&#45;&gt;Blogger</title>
<path fill="none" stroke="black" d="M176.34,-187.83C154.41,-183.63 130.68,-174.68 117.02,-156 97.98,-129.96 141.5,-117.17 179.29,-111.1"/>
<polygon fill="black" stroke="black" points="179.86,-114.55 189.24,-109.63 178.83,-107.63 179.86,-114.55"/>
<text text-anchor="middle" x="161.02" y="-144.8" font-family="Times New Roman,serif" font-size="14.00">1. addObserver</text>
</g>
<!-- Newsportal&#45;&gt;Blogger -->
<g id="edge6" class="edge">
<title>Newsportal&#45;&gt;Blogger</title>
<path fill="none" stroke="black" d="M225.26,-173.93C224.76,-168.23 224.27,-161.85 224.02,-156 223.71,-148.64 223.93,-140.69 224.37,-133.33"/>
<polygon fill="black" stroke="black" points="227.87,-133.35 225.12,-123.12 220.89,-132.83 227.87,-133.35"/>
<text text-anchor="middle" x="263.52" y="-144.8" font-family="Times New Roman,serif" font-size="14.00">6. getHeadline</text>
</g>
<!-- Blogger&#45;&gt;Newsportal -->
<g id="edge5" class="edge">
<title>Blogger&#45;&gt;Newsportal</title>
<path fill="none" stroke="black" d="M261.58,-113.43C289.07,-121.08 320.83,-134.89 307.02,-156 300.6,-165.81 290.76,-172.89 280.15,-177.99"/>
<polygon fill="black" stroke="black" points="278.54,-174.87 270.69,-181.98 281.27,-181.32 278.54,-174.87"/>
<text text-anchor="middle" x="336.02" y="-144.8" font-family="Times New Roman,serif" font-size="14.00">5. update</text>
</g>
<!-- Blogger&#45;&gt;Blogger -->
<g id="edge4" class="edge">
<title>Blogger&#45;&gt;Blogger</title>
<path fill="none" stroke="black" d="M261.8,-113.15C274.07,-113.28 284.02,-110.56 284.02,-105 284.02,-101.09 279.1,-98.58 271.91,-97.49"/>
<polygon fill="black" stroke="black" points="272.01,-93.98 261.8,-96.85 271.56,-100.97 272.01,-93.98"/>
<text text-anchor="middle" x="336.52" y="-101.3" font-family="Times New Roman,serif" font-size="14.00">4. notifyObservers</text>
</g>
<!-- Newspaper -->
<g id="node3" class="node">
<title>Newspaper</title>
<ellipse fill="none" stroke="black" cx="65.02" cy="-18" rx="51.99" ry="18"/>
<text text-anchor="middle" x="65.02" y="-14.3" font-family="Times New Roman,serif" font-size="14.00">Newspaper</text>
</g>
<!-- Blogger&#45;&gt;Newspaper -->
<g id="edge7" class="edge">
<title>Blogger&#45;&gt;Newspaper</title>
<path fill="none" stroke="black" d="M187.7,-103.71C130.13,-102.36 27.2,-96.1 4.02,-69 -6.42,-56.8 5.51,-45.28 21.5,-36.38"/>
<polygon fill="black" stroke="black" points="23.36,-39.37 30.69,-31.72 20.19,-33.12 23.36,-39.37"/>
<text text-anchor="middle" x="30.02" y="-57.8" font-family="Times New Roman,serif" font-size="14.00">7. update</text>
</g>
<!-- MobileSubscriber -->
<g id="node4" class="node">
<title>MobileSubscriber</title>
<ellipse fill="none" stroke="black" cx="353.02" cy="-18" rx="75.29" ry="18"/>
<text text-anchor="middle" x="353.02" y="-14.3" font-family="Times New Roman,serif" font-size="14.00">MobileSubscriber</text>
</g>
<!-- Blogger&#45;&gt;MobileSubscriber -->
<g id="edge9" class="edge">
<title>Blogger&#45;&gt;MobileSubscriber</title>
<path fill="none" stroke="black" d="M239.96,-87.55C248.93,-76.95 261.64,-63.43 275.02,-54 283.94,-47.72 294.17,-42.16 304.21,-37.42"/>
<polygon fill="black" stroke="black" points="305.67,-40.61 313.35,-33.31 302.79,-34.22 305.67,-40.61"/>
<text text-anchor="middle" x="301.02" y="-57.8" font-family="Times New Roman,serif" font-size="14.00">9. update</text>
</g>
<!-- Newspaper&#45;&gt;Blogger -->
<g id="edge2" class="edge">
<title>Newspaper&#45;&gt;Blogger</title>
<path fill="none" stroke="black" d="M60.45,-36.12C58.7,-46.74 58.63,-60.02 66.02,-69 80.16,-86.19 136.64,-95.42 178.73,-100.01"/>
<polygon fill="black" stroke="black" points="178.51,-103.5 188.82,-101.05 179.23,-96.54 178.51,-103.5"/>
<text text-anchor="middle" x="110.02" y="-57.8" font-family="Times New Roman,serif" font-size="14.00">2. addObserver</text>
</g>
<!-- Newspaper&#45;&gt;Blogger -->
<g id="edge8" class="edge">
<title>Newspaper&#45;&gt;Blogger</title>
<path fill="none" stroke="black" d="M101.54,-30.84C118.04,-36.83 137.49,-44.77 154.02,-54 163.72,-59.42 164.94,-62.6 174.02,-69 181.28,-74.11 189.21,-79.47 196.68,-84.41"/>
<polygon fill="black" stroke="black" points="194.88,-87.42 205.16,-89.99 198.73,-81.57 194.88,-87.42"/>
<text text-anchor="middle" x="213.52" y="-57.8" font-family="Times New Roman,serif" font-size="14.00">8. getHeadline</text>
</g>
<!-- MobileSubscriber&#45;&gt;Blogger -->
<g id="edge3" class="edge">
<title>MobileSubscriber&#45;&gt;Blogger</title>
<path fill="none" stroke="black" d="M349.18,-36.4C345.99,-47.13 340.4,-60.43 331.02,-69 315.33,-83.34 293.57,-91.83 274,-96.84"/>
<polygon fill="black" stroke="black" points="272.97,-93.49 264.02,-99.16 274.55,-100.31 272.97,-93.49"/>
<text text-anchor="middle" x="385.02" y="-57.8" font-family="Times New Roman,serif" font-size="14.00">3. addObserver</text>
</g>
<!-- MobileSubscriber&#45;&gt;Blogger -->
<g id="edge10" class="edge">
<title>MobileSubscriber&#45;&gt;Blogger</title>
<path fill="none" stroke="black" d="M402.34,-31.69C426.07,-40.19 446.7,-52.79 433.02,-69 413.34,-92.3 330.63,-100.09 276.18,-102.7"/>
<polygon fill="black" stroke="black" points="275.87,-99.21 266.03,-103.14 276.18,-106.2 275.87,-99.21"/>
<text text-anchor="middle" x="480.02" y="-57.8" font-family="Times New Roman,serif" font-size="14.00">10. getHeadline</text>
</g>
</g>
</svg>
