<?xml version="1.0" encoding="UTF-8" standalone="no"?>
<!DOCTYPE svg PUBLIC "-//W3C//DTD SVG 1.1//EN"
 "http://www.w3.org/Graphics/SVG/1.1/DTD/svg11.dtd">
<!-- Generated by graphviz version 6.0.2 (20221011.1828)
 -->
<!-- Title: call_graph Pages: 1 -->
<svg width="586pt" height="218pt"
 viewBox="0.00 0.00 585.86 218.00" xmlns="http://www.w3.org/2000/svg" xmlns:xlink="http://www.w3.org/1999/xlink">
<g id="graph0" class="graph" transform="scale(1 1) rotate(0) translate(4 214)">
<title>call_graph</title>
<polygon fill="white" stroke="none" points="-4,4 -4,-214 581.86,-214 581.86,4 -4,4"/>
<!-- EmailNewsLetter -->
<g id="node1" class="node">
<title>EmailNewsLetter</title>
<ellipse fill="none" stroke="black" cx="241.86" cy="-192" rx="72.29" ry="18"/>
<text text-anchor="middle" x="241.86" y="-188.3" font-family="Times New Roman,serif" font-size="14.00">EmailNewsLetter</text>
</g>
<!-- Netflix -->
<g id="node2" class="node">
<title>Netflix</title>
<ellipse fill="none" stroke="black" cx="241.86" cy="-105" rx="34.39" ry="18"/>
<text text-anchor="middle" x="241.86" y="-101.3" font-family="Times New Roman,serif" font-size="14.00">Netflix</text>
</g>
<!-- EmailNewsLetter&#45;&gt;Netflix -->
<g id="edge1" class="edge">
<title>EmailNewsLetter&#45;&gt;Netflix</title>
<path fill="none" stroke="black" d="M187.97,-179.73C175.76,-174.55 164.23,-167.01 156.86,-156 143.01,-135.32 172.3,-122.01 200.19,-114.36"/>
<polygon fill="black" stroke="black" points="201.1,-117.74 209.93,-111.89 199.38,-110.95 201.1,-117.74"/>
<text text-anchor="middle" x="188.36" y="-144.8" font-family="Times New Roman,serif" font-size="14.00">1. addAlert</text>
</g>
<!-- EmailNewsLetter&#45;&gt;Netflix -->
<g id="edge6" class="edge">
<title>EmailNewsLetter&#45;&gt;Netflix</title>
<path fill="none" stroke="black" d="M240.1,-173.93C239.59,-168.23 239.11,-161.85 238.86,-156 238.55,-148.64 238.77,-140.69 239.2,-133.33"/>
<polygon fill="black" stroke="black" points="242.71,-133.35 239.96,-123.12 235.73,-132.83 242.71,-133.35"/>
<text text-anchor="middle" x="291.36" y="-144.8" font-family="Times New Roman,serif" font-size="14.00">6. getAlertUpdates</text>
</g>
<!-- Netflix&#45;&gt;EmailNewsLetter -->
<g id="edge5" class="edge">
<title>Netflix&#45;&gt;EmailNewsLetter</title>
<path fill="none" stroke="black" d="M275.57,-109.5C313.78,-114.89 368.3,-127.72 347.86,-156 339.77,-167.18 327.98,-174.86 315.18,-180.1"/>
<polygon fill="black" stroke="black" points="313.93,-176.83 305.71,-183.51 316.3,-183.42 313.93,-176.83"/>
<text text-anchor="middle" x="391.36" y="-144.8" font-family="Times New Roman,serif" font-size="14.00">5. updateAlert</text>
</g>
<!-- Netflix&#45;&gt;Netflix -->
<g id="edge4" class="edge">
<title>Netflix&#45;&gt;Netflix</title>
<path fill="none" stroke="black" d="M272.83,-113.13C284.58,-113.45 294.31,-110.73 294.31,-105 294.31,-101.06 289.71,-98.54 283.02,-97.46"/>
<polygon fill="black" stroke="black" points="283.01,-93.95 272.83,-96.87 282.61,-100.94 283.01,-93.95"/>
<text text-anchor="middle" x="344.31" y="-101.3" font-family="Times New Roman,serif" font-size="14.00">4. notifyEveryone</text>
</g>
<!-- SmsAlert -->
<g id="node3" class="node">
<title>SmsAlert</title>
<ellipse fill="none" stroke="black" cx="91.86" cy="-18" rx="44.39" ry="18"/>
<text text-anchor="middle" x="91.86" y="-14.3" font-family="Times New Roman,serif" font-size="14.00">SmsAlert</text>
</g>
<!-- Netflix&#45;&gt;SmsAlert -->
<g id="edge7" class="edge">
<title>Netflix&#45;&gt;SmsAlert</title>
<path fill="none" stroke="black" d="M207.4,-104.18C148.1,-103.68 30.61,-98.83 4.86,-69 -10.82,-50.83 15.57,-37.74 43.29,-29.52"/>
<polygon fill="black" stroke="black" points="44.38,-32.85 53.08,-26.82 42.51,-26.1 44.38,-32.85"/>
<text text-anchor="middle" x="44.36" y="-57.8" font-family="Times New Roman,serif" font-size="14.00">7. updateAlert</text>
</g>
<!-- PushAlert -->
<g id="node4" class="node">
<title>PushAlert</title>
<ellipse fill="none" stroke="black" cx="407.86" cy="-18" rx="46.29" ry="18"/>
<text text-anchor="middle" x="407.86" y="-14.3" font-family="Times New Roman,serif" font-size="14.00">PushAlert</text>
</g>
<!-- Netflix&#45;&gt;PushAlert -->
<g id="edge9" class="edge">
<title>Netflix&#45;&gt;PushAlert</title>
<path fill="none" stroke="black" d="M259.51,-89.27C276.65,-75.01 300.43,-55.34 302.86,-54 320.54,-44.24 341.41,-36.6 359.86,-30.98"/>
<polygon fill="black" stroke="black" points="360.93,-34.31 369.54,-28.14 358.96,-27.59 360.93,-34.31"/>
<text text-anchor="middle" x="342.36" y="-57.8" font-family="Times New Roman,serif" font-size="14.00">9. updateAlert</text>
</g>
<!-- SmsAlert&#45;&gt;Netflix -->
<g id="edge2" class="edge">
<title>SmsAlert&#45;&gt;Netflix</title>
<path fill="none" stroke="black" d="M87.34,-36.08C85.61,-46.68 85.54,-59.95 92.86,-69 105.97,-85.22 159.03,-94.71 198.11,-99.62"/>
<polygon fill="black" stroke="black" points="197.87,-103.12 208.21,-100.83 198.7,-96.17 197.87,-103.12"/>
<text text-anchor="middle" x="124.36" y="-57.8" font-family="Times New Roman,serif" font-size="14.00">2. addAlert</text>
</g>
<!-- SmsAlert&#45;&gt;Netflix -->
<g id="edge8" class="edge">
<title>SmsAlert&#45;&gt;Netflix</title>
<path fill="none" stroke="black" d="M117.96,-32.68C129.67,-38.97 143.58,-46.65 155.86,-54 166.33,-60.27 168.41,-62.7 178.86,-69 188.79,-74.98 199.78,-81.22 209.77,-86.74"/>
<polygon fill="black" stroke="black" points="208.15,-89.85 218.6,-91.59 211.51,-83.71 208.15,-89.85"/>
<text text-anchor="middle" x="231.36" y="-57.8" font-family="Times New Roman,serif" font-size="14.00">8. getAlertUpdates</text>
</g>
<!-- PushAlert&#45;&gt;Netflix -->
<g id="edge3" class="edge">
<title>PushAlert&#45;&gt;Netflix</title>
<path fill="none" stroke="black" d="M404.41,-36.2C401.34,-47.12 395.75,-60.72 385.86,-69 358.22,-92.16 317.68,-100.45 286.65,-103.21"/>
<polygon fill="black" stroke="black" points="286.25,-99.73 276.53,-103.95 286.76,-106.71 286.25,-99.73"/>
<text text-anchor="middle" x="427.36" y="-57.8" font-family="Times New Roman,serif" font-size="14.00">3. addAlert</text>
</g>
<!-- PushAlert&#45;&gt;Netflix -->
<g id="edge10" class="edge">
<title>PushAlert&#45;&gt;Netflix</title>
<path fill="none" stroke="black" d="M438.34,-31.83C456.79,-41.4 474.68,-55.16 462.86,-69 440.65,-95 344.48,-101.79 286.57,-103.5"/>
<polygon fill="black" stroke="black" points="286.14,-100.01 276.23,-103.76 286.32,-107.01 286.14,-100.01"/>
<text text-anchor="middle" x="521.86" y="-57.8" font-family="Times New Roman,serif" font-size="14.00">10. getAlertUpdates</text>
</g>
</g>
</svg>
